<svg width="32" height="32" viewBox="0 0 32 32" fill="none" xmlns="http://www.w3.org/2000/svg">
  <defs>
    <linearGradient id="gradient" x1="0%" y1="0%" x2="100%" y2="100%">
      <stop offset="0%" style="stop-color:#3B82F6;stop-opacity:1" />
      <stop offset="100%" style="stop-color:#10B981;stop-opacity:1" />
    </linearGradient>
  </defs>
  
  <!-- Background circle -->
  <circle cx="16" cy="16" r="15" fill="url(#gradient)" stroke="#ffffff" stroke-width="2"/>
  
  <!-- Water drop -->
  <path d="M12 8C12 8 8 12 8 15C8 17.2091 9.79086 19 12 19C14.2091 19 16 17.2091 16 15C16 12 12 8 12 8Z" fill="white" opacity="0.9"/>
  
  <!-- Clock/Timer -->
  <circle cx="22" cy="12" r="6" fill="white" opacity="0.2"/>
  <circle cx="22" cy="12" r="4" fill="white" opacity="0.9"/>
  <path d="M22 10V12L23.5 13.5" stroke="#3B82F6" stroke-width="1.5" stroke-linecap="round"/>
  
  <!-- Flame/Calories -->
  <path d="M20 20C20 20 16 24 16 26C16 27.1046 16.8954 28 18 28C19.1046 28 20 27.1046 20 26C20 24 20 20 20 20Z" fill="white" opacity="0.9"/>
</svg>